<svg xmlns="http://www.w3.org/2000/svg" xmlns:xlink="http://www.w3.org/1999/xlink" width="50pt" height="50pt" viewBox="0 0 50 50" version="1.1">
    <g id="surface1">
        <path style=" stroke:none;fill-rule:nonzero;fill:#FFF;fill-opacity:1;" d="M 3.90625 10.9375 C 2.617188 10.9375 1.5625 11.992188 1.5625 13.28125 L 1.5625 39.84375 C 1.5625 41.132813 2.617188 42.1875 3.90625 42.1875 L 46.09375 42.1875 C 47.382813 42.1875 48.4375 41.132813 48.4375 39.84375 L 48.4375 13.28125 C 48.4375 11.992188 47.382813 10.9375 46.09375 10.9375 Z M 3.90625 12.5 L 46.09375 12.5 C 46.523438 12.5 46.875 12.851563 46.875 13.28125 L 46.875 23.4375 L 3.125 23.4375 L 3.125 17.1875 L 38.28125 17.1875 C 38.714844 17.1875 39.0625 16.835938 39.0625 16.40625 C 39.0625 15.976563 38.714844 15.625 38.28125 15.625 L 3.125 15.625 L 3.125 13.28125 C 3.125 12.851563 3.476563 12.5 3.90625 12.5 Z M 41.40625 15.625 C 40.972656 15.625 40.625 15.976563 40.625 16.40625 C 40.625 16.835938 40.972656 17.1875 41.40625 17.1875 L 44.53125 17.1875 C 44.964844 17.1875 45.3125 16.835938 45.3125 16.40625 C 45.3125 15.976563 44.964844 15.625 44.53125 15.625 Z M 5.46875 18.75 C 5.035156 18.75 4.6875 19.101563 4.6875 19.53125 L 4.6875 21.09375 C 4.6875 21.523438 5.035156 21.875 5.46875 21.875 C 5.902344 21.875 6.25 21.523438 6.25 21.09375 L 6.25 19.53125 C 6.25 19.101563 5.902344 18.75 5.46875 18.75 Z M 9.375 18.75 C 8.941406 18.75 8.59375 19.101563 8.59375 19.53125 L 8.59375 21.09375 C 8.59375 21.523438 8.941406 21.875 9.375 21.875 C 9.808594 21.875 10.15625 21.523438 10.15625 21.09375 L 10.15625 19.53125 C 10.15625 19.101563 9.808594 18.75 9.375 18.75 Z M 13.28125 18.75 C 12.847656 18.75 12.5 19.101563 12.5 19.53125 L 12.5 21.09375 C 12.5 21.523438 12.847656 21.875 13.28125 21.875 C 13.714844 21.875 14.0625 21.523438 14.0625 21.09375 L 14.0625 19.53125 C 14.0625 19.101563 13.714844 18.75 13.28125 18.75 Z M 17.1875 18.75 C 16.753906 18.75 16.40625 19.101563 16.40625 19.53125 L 16.40625 21.09375 C 16.40625 21.523438 16.753906 21.875 17.1875 21.875 C 17.621094 21.875 17.96875 21.523438 17.96875 21.09375 L 17.96875 19.53125 C 17.96875 19.101563 17.621094 18.75 17.1875 18.75 Z M 21.09375 18.75 C 20.660156 18.75 20.3125 19.101563 20.3125 19.53125 L 20.3125 21.09375 C 20.3125 21.523438 20.660156 21.875 21.09375 21.875 C 21.527344 21.875 21.875 21.523438 21.875 21.09375 L 21.875 19.53125 C 21.875 19.101563 21.527344 18.75 21.09375 18.75 Z M 25 18.75 C 24.566406 18.75 24.21875 19.101563 24.21875 19.53125 L 24.21875 21.09375 C 24.21875 21.523438 24.566406 21.875 25 21.875 C 25.433594 21.875 25.78125 21.523438 25.78125 21.09375 L 25.78125 19.53125 C 25.78125 19.101563 25.433594 18.75 25 18.75 Z M 28.90625 18.75 C 28.472656 18.75 28.125 19.101563 28.125 19.53125 L 28.125 21.09375 C 28.125 21.523438 28.472656 21.875 28.90625 21.875 C 29.339844 21.875 29.6875 21.523438 29.6875 21.09375 L 29.6875 19.53125 C 29.6875 19.101563 29.339844 18.75 28.90625 18.75 Z M 32.8125 18.75 C 32.378906 18.75 32.03125 19.101563 32.03125 19.53125 L 32.03125 21.09375 C 32.03125 21.523438 32.378906 21.875 32.8125 21.875 C 33.246094 21.875 33.59375 21.523438 33.59375 21.09375 L 33.59375 19.53125 C 33.59375 19.101563 33.246094 18.75 32.8125 18.75 Z M 36.71875 18.75 C 36.285156 18.75 35.9375 19.101563 35.9375 19.53125 L 35.9375 21.09375 C 35.9375 21.523438 36.285156 21.875 36.71875 21.875 C 37.152344 21.875 37.5 21.523438 37.5 21.09375 L 37.5 19.53125 C 37.5 19.101563 37.152344 18.75 36.71875 18.75 Z M 40.625 18.75 C 40.191406 18.75 39.84375 19.101563 39.84375 19.53125 L 39.84375 21.09375 C 39.84375 21.523438 40.191406 21.875 40.625 21.875 C 41.058594 21.875 41.40625 21.523438 41.40625 21.09375 L 41.40625 19.53125 C 41.40625 19.101563 41.058594 18.75 40.625 18.75 Z M 44.53125 18.75 C 44.097656 18.75 43.75 19.101563 43.75 19.53125 L 43.75 21.09375 C 43.75 21.523438 44.097656 21.875 44.53125 21.875 C 44.964844 21.875 45.3125 21.523438 45.3125 21.09375 L 45.3125 19.53125 C 45.3125 19.101563 44.964844 18.75 44.53125 18.75 Z M 3.125 25 L 46.875 25 L 46.875 39.84375 C 46.875 40.273438 46.523438 40.625 46.09375 40.625 L 3.90625 40.625 C 3.476563 40.625 3.125 40.273438 3.125 39.84375 Z M 35.15625 28.90625 C 33.433594 28.90625 32.03125 30.308594 32.03125 32.03125 C 32.03125 33.753906 33.433594 35.15625 35.15625 35.15625 C 35.875 35.15625 36.5625 34.910156 37.109375 34.46875 C 37.65625 34.910156 38.34375 35.15625 39.0625 35.15625 C 40.785156 35.15625 42.1875 33.753906 42.1875 32.03125 C 42.1875 30.308594 40.785156 28.90625 39.0625 28.90625 C 38.34375 28.90625 37.65625 29.152344 37.109375 29.59375 C 36.5625 29.152344 35.875 28.90625 35.15625 28.90625 Z M 8.59375 29.6875 C 8.160156 29.6875 7.8125 30.039063 7.8125 30.46875 C 7.8125 30.898438 8.160156 31.25 8.59375 31.25 L 19.53125 31.25 C 19.964844 31.25 20.3125 30.898438 20.3125 30.46875 C 20.3125 30.039063 19.964844 29.6875 19.53125 29.6875 Z M 24.21875 29.6875 C 23.785156 29.6875 23.4375 30.039063 23.4375 30.46875 C 23.4375 30.898438 23.785156 31.25 24.21875 31.25 L 27.34375 31.25 C 27.777344 31.25 28.125 30.898438 28.125 30.46875 C 28.125 30.039063 27.777344 29.6875 27.34375 29.6875 Z M 35.15625 30.46875 C 35.679688 30.46875 36.167969 30.730469 36.460938 31.171875 C 36.746094 31.605469 37.472656 31.605469 37.757813 31.171875 C 38.050781 30.730469 38.539063 30.46875 39.0625 30.46875 C 39.921875 30.46875 40.625 31.171875 40.625 32.03125 C 40.625 32.890625 39.921875 33.59375 39.0625 33.59375 C 38.539063 33.59375 38.050781 33.332031 37.757813 32.890625 C 37.617188 32.675781 37.371094 32.542969 37.109375 32.542969 C 36.847656 32.542969 36.601563 32.675781 36.460938 32.890625 C 36.167969 33.332031 35.679688 33.59375 35.15625 33.59375 C 34.296875 33.59375 33.59375 32.890625 33.59375 32.03125 C 33.59375 31.171875 34.296875 30.46875 35.15625 30.46875 Z M 8.59375 32.8125 C 8.160156 32.8125 7.8125 33.164063 7.8125 33.59375 C 7.8125 34.023438 8.160156 34.375 8.59375 34.375 L 17.1875 34.375 C 17.621094 34.375 17.96875 34.023438 17.96875 33.59375 C 17.96875 33.164063 17.621094 32.8125 17.1875 32.8125 Z "/>
    </g>
</svg>