<svg xmlns="http://www.w3.org/2000/svg" xmlns:xlink="http://www.w3.org/1999/xlink" width="50pt" height="50pt" viewBox="0 0 50 50" version="1.1">
    <g id="surface1">
        <path style=" stroke:none;fill-rule:nonzero;fill:#FFF;fill-opacity:1;" d="M 25 4.6875 C 23.519531 4.6875 21.40625 5.148438 20.078125 6.03125 C 18.640625 6.09375 17.457031 6.738281 16.648438 7.792969 C 16.609375 7.792969 16.570313 7.789063 16.527344 7.789063 L 16.007813 7.789063 C 14.875 7.789063 13.21875 8.113281 12.109375 8.839844 C 10.09375 8.949219 8.667969 10.429688 8.445313 12.667969 C 8.308594 14.03125 8.4375 15.046875 8.515625 15.648438 C 8.539063 15.832031 8.566406 16.0625 8.566406 16.113281 C 8.558594 16.148438 8.550781 16.183594 8.546875 16.21875 C 8.523438 16.226563 8.503906 16.230469 8.480469 16.234375 C 7.457031 16.511719 7.027344 17.875 7.457031 19.484375 C 7.75 20.558594 8.332031 21.363281 9.003906 21.671875 C 9.382813 22.796875 9.933594 23.871094 10.597656 24.804688 L 3.578125 29.347656 C 1.335938 30.796875 0 33.253906 0 35.921875 L 0 38.429688 C 0 39.640625 0.984375 40.625 2.191406 40.625 L 6.25 40.625 L 6.25 42.96875 C 6.25 44.257813 7.304688 45.3125 8.59375 45.3125 L 41.40625 45.3125 C 42.695313 45.3125 43.75 44.257813 43.75 42.96875 L 43.75 40.625 L 47.742188 40.625 C 48.953125 40.625 49.9375 39.640625 49.9375 38.429688 L 49.9375 35.921875 C 49.9375 33.253906 48.597656 30.796875 46.355469 29.347656 L 39.902344 25.171875 C 40.679688 24.15625 41.328125 22.949219 41.761719 21.671875 C 42.433594 21.363281 43.019531 20.558594 43.308594 19.484375 C 43.738281 17.875 43.308594 16.511719 42.285156 16.234375 C 42.265625 16.230469 42.242188 16.226563 42.222656 16.222656 C 42.152344 15.816406 42.050781 15.421875 41.894531 14.953125 C 41.972656 14.976563 42.046875 15.003906 42.113281 15.03125 C 42.382813 15.144531 42.695313 15.097656 42.917969 14.910156 C 43.140625 14.726563 43.242188 14.429688 43.179688 14.144531 C 42.308594 10.164063 39.355469 7.789063 35.277344 7.789063 L 34.757813 7.789063 C 34.328125 7.789063 33.824219 7.839844 33.304688 7.941406 C 31.503906 5.851563 28.859375 4.6875 25.667969 4.6875 Z M 25 6.25 L 25.667969 6.25 C 29.613281 6.25 32.476563 8.238281 33.695313 11.75 C 33.261719 11.726563 32.828125 11.808594 32.511719 12.113281 C 32.234375 12.382813 31.96875 12.882813 32.289063 13.769531 C 32.699219 14.878906 32.847656 15.53125 32.890625 16.457031 C 32.902344 16.738281 33.0625 16.988281 33.3125 17.117188 C 33.558594 17.246094 33.859375 17.230469 34.09375 17.078125 C 34.132813 17.054688 34.164063 17.039063 34.183594 17.027344 C 34.328125 17.207031 34.507813 17.925781 34.226563 18.980469 C 33.921875 20.109375 33.351563 20.632813 33.179688 20.652344 C 32.832031 20.652344 32.527344 20.878906 32.429688 21.210938 C 31.339844 24.867188 28.367188 28.753906 25 28.753906 C 21.628906 28.753906 18.65625 24.867188 17.570313 21.210938 C 17.472656 20.878906 17.167969 20.652344 16.820313 20.652344 C 16.648438 20.632813 16.074219 20.109375 15.773438 18.980469 C 15.46875 17.851563 15.703125 17.105469 15.773438 17.015625 C 15.773438 17.015625 15.816406 17.023438 15.902344 17.078125 C 16.136719 17.230469 16.4375 17.246094 16.6875 17.117188 C 16.933594 16.992188 17.097656 16.738281 17.109375 16.457031 C 17.125 16.117188 17.164063 15.773438 17.222656 15.441406 C 17.277344 15.140625 17.234375 14.792969 17.171875 14.308594 C 17.078125 13.566406 16.929688 12.441406 17.085938 10.894531 C 17.292969 8.824219 18.503906 7.585938 20.332031 7.585938 C 20.5 7.585938 20.667969 7.53125 20.800781 7.429688 C 21.6875 6.769531 23.527344 6.25 25 6.25 Z M 34.757813 9.351563 L 35.277344 9.351563 C 38.191406 9.351563 40.332031 10.773438 41.300781 13.300781 C 41.007813 13.320313 40.730469 13.414063 40.503906 13.632813 C 40.296875 13.832031 39.988281 14.289063 40.289063 15.109375 C 40.601563 15.953125 40.714844 16.453125 40.746094 17.15625 C 40.757813 17.4375 40.945313 17.675781 41.195313 17.800781 C 41.394531 17.90625 41.636719 17.90625 41.847656 17.824219 C 41.910156 18.039063 41.957031 18.476563 41.796875 19.078125 C 41.585938 19.859375 41.207031 20.222656 41.140625 20.25 C 40.796875 20.25 40.492188 20.476563 40.394531 20.808594 C 39.820313 22.738281 38.683594 24.515625 37.351563 25.566406 C 37.015625 25.832031 36.957031 26.324219 37.222656 26.664063 C 37.378906 26.859375 37.605469 26.960938 37.839844 26.960938 C 38.007813 26.960938 38.179688 26.90625 38.320313 26.792969 C 38.496094 26.652344 38.671875 26.5 38.84375 26.34375 L 45.507813 30.65625 C 47.300781 31.816406 48.371094 33.785156 48.371094 35.921875 L 48.371094 38.429688 L 48.375 38.429688 C 48.375 38.777344 48.089844 39.0625 47.742188 39.0625 L 43.75 39.0625 L 43.75 39 C 43.75 35.386719 41.808594 32.019531 38.683594 30.210938 L 31.714844 26.175781 C 32.605469 24.929688 33.320313 23.519531 33.789063 22.09375 C 34.628906 21.757813 35.371094 20.753906 35.734375 19.386719 C 36.253906 17.453125 35.769531 15.820313 34.585938 15.503906 C 34.523438 15.484375 34.445313 15.46875 34.363281 15.460938 C 34.269531 14.796875 34.09375 14.15625 33.796875 13.332031 C 34.007813 13.371094 34.28125 13.449219 34.507813 13.542969 C 34.777344 13.65625 35.085938 13.609375 35.304688 13.417969 C 35.53125 13.234375 35.632813 12.9375 35.570313 12.65625 C 35.304688 11.4375 34.878906 10.339844 34.316406 9.375 C 34.464844 9.363281 34.617188 9.351563 34.757813 9.351563 Z M 15.835938 9.355469 C 15.695313 9.789063 15.582031 10.242188 15.535156 10.738281 C 15.363281 12.464844 15.515625 13.691406 15.621094 14.511719 C 15.652344 14.765625 15.695313 15.085938 15.6875 15.171875 C 15.667969 15.269531 15.652344 15.363281 15.636719 15.460938 C 15.558594 15.46875 15.480469 15.484375 15.417969 15.503906 C 14.230469 15.820313 13.746094 17.453125 14.265625 19.386719 C 14.628906 20.753906 15.371094 21.757813 16.210938 22.09375 C 16.683594 23.519531 17.394531 24.929688 18.285156 26.175781 L 11.320313 30.210938 C 8.191406 32.019531 6.25 35.386719 6.25 39 L 6.25 39.0625 L 2.191406 39.0625 C 1.847656 39.0625 1.5625 38.777344 1.5625 38.429688 L 1.5625 35.921875 C 1.5625 33.785156 2.632813 31.816406 4.429688 30.65625 L 11.597656 26.015625 C 11.671875 26.09375 11.738281 26.171875 11.8125 26.242188 C 11.964844 26.386719 12.160156 26.460938 12.355469 26.460938 C 12.5625 26.460938 12.765625 26.382813 12.917969 26.222656 C 13.21875 25.914063 13.210938 25.417969 12.898438 25.117188 C 11.785156 24.042969 10.863281 22.472656 10.371094 20.808594 C 10.273438 20.476563 10.011719 20.257813 9.664063 20.257813 C 9.558594 20.222656 9.179688 19.859375 8.96875 19.078125 C 8.808594 18.480469 8.855469 18.046875 8.917969 17.835938 C 9.132813 17.929688 9.382813 17.925781 9.59375 17.816406 C 9.84375 17.6875 10.007813 17.4375 10.019531 17.160156 C 10.03125 16.898438 10.058594 16.636719 10.105469 16.386719 C 10.148438 16.121094 10.113281 15.839844 10.066406 15.453125 C 9.992188 14.878906 9.882813 14.011719 10 12.820313 C 10.152344 11.28125 11.015625 10.394531 12.367188 10.394531 C 12.535156 10.394531 12.699219 10.339844 12.832031 10.238281 C 13.464844 9.765625 14.753906 9.394531 15.835938 9.355469 Z M 21.09375 10.121094 C 20.667969 10.160156 20.265625 10.386719 20.011719 10.765625 L 18.941406 12.394531 C 18.703125 12.753906 18.804688 13.238281 19.164063 13.476563 C 19.296875 13.5625 19.445313 13.601563 19.59375 13.601563 C 19.847656 13.601563 20.097656 13.480469 20.25 13.253906 L 21.265625 11.707031 L 22.21875 12.171875 C 24.140625 13.105469 26.28125 13.601563 28.417969 13.601563 L 30.128906 13.601563 C 30.558594 13.601563 30.910156 13.253906 30.910156 12.820313 C 30.910156 12.390625 30.558594 12.039063 30.128906 12.039063 L 28.417969 12.039063 C 26.515625 12.039063 24.609375 11.601563 22.902344 10.769531 L 21.859375 10.261719 C 21.617188 10.140625 21.351563 10.097656 21.09375 10.121094 Z M 19.277344 27.40625 C 20.859375 29.136719 22.832031 30.316406 25 30.316406 C 27.167969 30.316406 29.136719 29.136719 30.722656 27.40625 L 37.898438 31.5625 C 40.546875 33.09375 42.1875 35.945313 42.1875 39 L 42.1875 42.96875 C 42.1875 43.398438 41.835938 43.75 41.40625 43.75 L 8.59375 43.75 C 8.164063 43.75 7.8125 43.398438 7.8125 42.96875 L 7.8125 39 C 7.8125 35.945313 9.453125 33.09375 12.101563 31.5625 Z M 31.203125 30.46875 C 31.101563 30.476563 30.996094 30.503906 30.898438 30.550781 L 25 33.503906 L 19.101563 30.550781 C 18.714844 30.355469 18.242188 30.515625 18.050781 30.898438 C 17.859375 31.285156 18.015625 31.757813 18.398438 31.949219 L 24.648438 35.074219 C 24.761719 35.128906 24.882813 35.15625 25 35.15625 C 25.117188 35.15625 25.242188 35.128906 25.351563 35.074219 L 31.601563 31.949219 C 31.984375 31.757813 32.140625 31.285156 31.949219 30.898438 C 31.804688 30.613281 31.507813 30.449219 31.203125 30.46875 Z M 9.375 39.0625 C 8.945313 39.0625 8.59375 39.414063 8.59375 39.84375 L 8.59375 41.40625 C 8.59375 41.835938 8.945313 42.1875 9.375 42.1875 C 9.804688 42.1875 10.15625 41.835938 10.15625 41.40625 L 10.15625 39.84375 C 10.15625 39.414063 9.804688 39.0625 9.375 39.0625 Z M 13.28125 39.0625 C 12.851563 39.0625 12.5 39.414063 12.5 39.84375 L 12.5 41.40625 C 12.5 41.835938 12.851563 42.1875 13.28125 42.1875 C 13.710938 42.1875 14.0625 41.835938 14.0625 41.40625 L 14.0625 39.84375 C 14.0625 39.414063 13.710938 39.0625 13.28125 39.0625 Z M 17.1875 39.0625 C 16.757813 39.0625 16.40625 39.414063 16.40625 39.84375 L 16.40625 41.40625 C 16.40625 41.835938 16.757813 42.1875 17.1875 42.1875 C 17.617188 42.1875 17.96875 41.835938 17.96875 41.40625 L 17.96875 39.84375 C 17.96875 39.414063 17.617188 39.0625 17.1875 39.0625 Z M 21.09375 39.0625 C 20.664063 39.0625 20.3125 39.414063 20.3125 39.84375 L 20.3125 41.40625 C 20.3125 41.835938 20.664063 42.1875 21.09375 42.1875 C 21.523438 42.1875 21.875 41.835938 21.875 41.40625 L 21.875 39.84375 C 21.875 39.414063 21.523438 39.0625 21.09375 39.0625 Z M 25 39.0625 C 24.570313 39.0625 24.21875 39.414063 24.21875 39.84375 L 24.21875 41.40625 C 24.21875 41.835938 24.570313 42.1875 25 42.1875 C 25.429688 42.1875 25.78125 41.835938 25.78125 41.40625 L 25.78125 39.84375 C 25.78125 39.414063 25.429688 39.0625 25 39.0625 Z M 28.90625 39.0625 C 28.476563 39.0625 28.125 39.414063 28.125 39.84375 L 28.125 41.40625 C 28.125 41.835938 28.476563 42.1875 28.90625 42.1875 C 29.335938 42.1875 29.6875 41.835938 29.6875 41.40625 L 29.6875 39.84375 C 29.6875 39.414063 29.335938 39.0625 28.90625 39.0625 Z M 32.8125 39.0625 C 32.382813 39.0625 32.03125 39.414063 32.03125 39.84375 L 32.03125 41.40625 C 32.03125 41.835938 32.382813 42.1875 32.8125 42.1875 C 33.242188 42.1875 33.59375 41.835938 33.59375 41.40625 L 33.59375 39.84375 C 33.59375 39.414063 33.242188 39.0625 32.8125 39.0625 Z M 36.71875 39.0625 C 36.289063 39.0625 35.9375 39.414063 35.9375 39.84375 L 35.9375 41.40625 C 35.9375 41.835938 36.289063 42.1875 36.71875 42.1875 C 37.148438 42.1875 37.5 41.835938 37.5 41.40625 L 37.5 39.84375 C 37.5 39.414063 37.148438 39.0625 36.71875 39.0625 Z M 40.625 39.0625 C 40.195313 39.0625 39.84375 39.414063 39.84375 39.84375 L 39.84375 41.40625 C 39.84375 41.835938 40.195313 42.1875 40.625 42.1875 C 41.054688 42.1875 41.40625 41.835938 41.40625 41.40625 L 41.40625 39.84375 C 41.40625 39.414063 41.054688 39.0625 40.625 39.0625 Z "/>
    </g>
</svg>