<svg xmlns="http://www.w3.org/2000/svg" xmlns:xlink="http://www.w3.org/1999/xlink" width="50pt" height="50pt" viewBox="0 0 50 50" version="1.1">
    <g id="surface1">
        <path style=" stroke:none;fill-rule:nonzero;fill:#fff;fill-opacity:1;" d="M 25 5.585938 C 24.710938 5.585938 24.417969 5.640625 24.140625 5.75 L 2.757813 14.171875 C 2.050781 14.449219 1.65625 15.167969 1.800781 15.917969 C 1.941406 16.664063 2.574219 17.1875 3.332031 17.1875 L 4.6875 17.1875 L 4.6875 18.75 C 4.6875 19.609375 5.390625 20.3125 6.25 20.3125 L 7.8125 20.3125 L 7.8125 35.9375 L 6.25 35.9375 C 5.390625 35.9375 4.6875 36.640625 4.6875 37.5 L 4.6875 39.0625 L 3.125 39.0625 C 2.265625 39.0625 1.5625 39.765625 1.5625 40.625 L 1.5625 44.53125 C 1.5625 44.960938 1.914063 45.3125 2.34375 45.3125 L 47.65625 45.3125 C 48.085938 45.3125 48.4375 44.960938 48.4375 44.53125 L 48.4375 40.625 C 48.4375 39.765625 47.734375 39.0625 46.875 39.0625 L 45.3125 39.0625 L 45.3125 37.5 C 45.3125 36.640625 44.609375 35.9375 43.75 35.9375 L 42.1875 35.9375 L 42.1875 20.3125 L 43.75 20.3125 C 44.609375 20.3125 45.3125 19.609375 45.3125 18.75 L 45.3125 17.1875 L 46.667969 17.1875 C 47.425781 17.1875 48.058594 16.664063 48.203125 15.917969 C 48.34375 15.167969 47.949219 14.449219 47.242188 14.171875 L 25.859375 5.75 C 25.582031 5.640625 25.289063 5.585938 25 5.585938 Z M 25 7.148438 C 25.097656 7.148438 25.191406 7.164063 25.285156 7.203125 L 46.667969 15.625 L 44.53125 15.625 C 44.101563 15.625 43.75 15.976563 43.75 16.40625 L 43.75 18.75 L 6.25 18.75 L 6.25 17.1875 L 35.15625 17.1875 C 35.585938 17.1875 35.9375 16.835938 35.9375 16.40625 C 35.9375 15.976563 35.585938 15.625 35.15625 15.625 L 3.332031 15.625 L 24.714844 7.203125 C 24.808594 7.164063 24.902344 7.148438 25 7.148438 Z M 25 9.375 C 23.710938 9.375 22.65625 10.429688 22.65625 11.71875 C 22.65625 13.007813 23.710938 14.0625 25 14.0625 C 26.289063 14.0625 27.34375 13.007813 27.34375 11.71875 C 27.34375 10.429688 26.289063 9.375 25 9.375 Z M 25 10.742188 C 25.539063 10.742188 25.976563 11.183594 25.976563 11.71875 C 25.976563 12.257813 25.539063 12.695313 25 12.695313 C 24.460938 12.695313 24.023438 12.257813 24.023438 11.71875 C 24.023438 11.183594 24.460938 10.742188 25 10.742188 Z M 38.28125 15.625 C 37.851563 15.625 37.5 15.976563 37.5 16.40625 C 37.5 16.835938 37.851563 17.1875 38.28125 17.1875 L 41.40625 17.1875 C 41.835938 17.1875 42.1875 16.835938 42.1875 16.40625 C 42.1875 15.976563 41.835938 15.625 41.40625 15.625 Z M 9.375 20.3125 L 12.5 20.3125 L 12.5 35.9375 L 9.375 35.9375 Z M 14.0625 20.3125 L 17.1875 20.3125 L 17.1875 35.9375 L 14.0625 35.9375 Z M 18.75 20.3125 L 21.875 20.3125 L 21.875 35.9375 L 18.75 35.9375 Z M 23.4375 20.3125 L 26.5625 20.3125 L 26.5625 35.9375 L 23.4375 35.9375 Z M 28.125 20.3125 L 31.25 20.3125 L 31.25 35.9375 L 28.125 35.9375 Z M 32.8125 20.3125 L 35.9375 20.3125 L 35.9375 35.9375 L 32.8125 35.9375 Z M 37.5 20.3125 L 40.625 20.3125 L 40.625 35.9375 L 37.5 35.9375 Z M 6.25 37.5 L 43.75 37.5 L 43.75 39.84375 C 43.75 40.273438 44.101563 40.625 44.53125 40.625 L 46.875 40.625 L 46.875 43.75 L 3.125 43.75 L 3.125 40.625 L 5.46875 40.625 C 5.898438 40.625 6.25 40.273438 6.25 39.84375 Z M 9.375 39.0625 C 8.945313 39.0625 8.59375 39.414063 8.59375 39.84375 L 8.59375 41.40625 C 8.59375 41.835938 8.945313 42.1875 9.375 42.1875 C 9.804688 42.1875 10.15625 41.835938 10.15625 41.40625 L 10.15625 39.84375 C 10.15625 39.414063 9.804688 39.0625 9.375 39.0625 Z M 13.28125 39.0625 C 12.851563 39.0625 12.5 39.414063 12.5 39.84375 L 12.5 41.40625 C 12.5 41.835938 12.851563 42.1875 13.28125 42.1875 C 13.710938 42.1875 14.0625 41.835938 14.0625 41.40625 L 14.0625 39.84375 C 14.0625 39.414063 13.710938 39.0625 13.28125 39.0625 Z M 17.1875 39.0625 C 16.757813 39.0625 16.40625 39.414063 16.40625 39.84375 L 16.40625 41.40625 C 16.40625 41.835938 16.757813 42.1875 17.1875 42.1875 C 17.617188 42.1875 17.96875 41.835938 17.96875 41.40625 L 17.96875 39.84375 C 17.96875 39.414063 17.617188 39.0625 17.1875 39.0625 Z M 21.09375 39.0625 C 20.664063 39.0625 20.3125 39.414063 20.3125 39.84375 L 20.3125 41.40625 C 20.3125 41.835938 20.664063 42.1875 21.09375 42.1875 C 21.523438 42.1875 21.875 41.835938 21.875 41.40625 L 21.875 39.84375 C 21.875 39.414063 21.523438 39.0625 21.09375 39.0625 Z M 25 39.0625 C 24.570313 39.0625 24.21875 39.414063 24.21875 39.84375 L 24.21875 41.40625 C 24.21875 41.835938 24.570313 42.1875 25 42.1875 C 25.429688 42.1875 25.78125 41.835938 25.78125 41.40625 L 25.78125 39.84375 C 25.78125 39.414063 25.429688 39.0625 25 39.0625 Z M 28.90625 39.0625 C 28.476563 39.0625 28.125 39.414063 28.125 39.84375 L 28.125 41.40625 C 28.125 41.835938 28.476563 42.1875 28.90625 42.1875 C 29.335938 42.1875 29.6875 41.835938 29.6875 41.40625 L 29.6875 39.84375 C 29.6875 39.414063 29.335938 39.0625 28.90625 39.0625 Z M 32.8125 39.0625 C 32.382813 39.0625 32.03125 39.414063 32.03125 39.84375 L 32.03125 41.40625 C 32.03125 41.835938 32.382813 42.1875 32.8125 42.1875 C 33.242188 42.1875 33.59375 41.835938 33.59375 41.40625 L 33.59375 39.84375 C 33.59375 39.414063 33.242188 39.0625 32.8125 39.0625 Z M 36.71875 39.0625 C 36.289063 39.0625 35.9375 39.414063 35.9375 39.84375 L 35.9375 41.40625 C 35.9375 41.835938 36.289063 42.1875 36.71875 42.1875 C 37.148438 42.1875 37.5 41.835938 37.5 41.40625 L 37.5 39.84375 C 37.5 39.414063 37.148438 39.0625 36.71875 39.0625 Z M 40.625 39.0625 C 40.195313 39.0625 39.84375 39.414063 39.84375 39.84375 L 39.84375 41.40625 C 39.84375 41.835938 40.195313 42.1875 40.625 42.1875 C 41.054688 42.1875 41.40625 41.835938 41.40625 41.40625 L 41.40625 39.84375 C 41.40625 39.414063 41.054688 39.0625 40.625 39.0625 Z "/>
    </g>
</svg>