<?xml version="1.0" encoding="UTF-8"?>
<svg xmlns="http://www.w3.org/2000/svg" xmlns:xlink="http://www.w3.org/1999/xlink" width="52pt" height="52pt" viewBox="0 0 52 52" version="1.1">
    <g id="surface1">
        <path style=" stroke:none;fill-rule:nonzero;fill:#FFF;fill-opacity:1;" d="M 42.25 0 L 9.75 0 C 4.367188 0 0 4.367188 0 9.75 L 0 42.25 C 0 47.632813 4.367188 52 9.75 52 L 42.25 52 C 47.632813 52 52 47.632813 52 42.25 L 52 9.75 C 52 4.367188 47.632813 0 42.25 0 Z M 16.078125 44.140625 L 8 44.140625 L 7.953125 19.953125 L 16.03125 19.953125 Z M 11.835938 16.789063 L 11.789063 16.789063 C 9.148438 16.789063 7.445313 14.96875 7.445313 12.703125 C 7.445313 10.382813 9.203125 8.625 11.890625 8.625 C 14.578125 8.625 16.226563 10.382813 16.28125 12.703125 C 16.28125 14.96875 14.570313 16.789063 11.835938 16.789063 Z M 44.085938 44.140625 L 35.9375 44.140625 L 35.9375 31 C 35.9375 27.820313 35.09375 25.65625 32.25 25.65625 C 30.078125 25.65625 28.90625 27.117188 28.34375 28.53125 C 28.132813 29.039063 28.078125 29.734375 28.078125 30.445313 L 28.078125 44.140625 L 19.890625 44.140625 L 19.84375 19.953125 L 28.03125 19.953125 L 28.078125 23.367188 C 29.125 21.75 30.867188 19.460938 35.039063 19.460938 C 40.210938 19.460938 44.078125 22.835938 44.078125 30.09375 L 44.078125 44.140625 Z "/>
    </g>
</svg>