<svg xmlns="http://www.w3.org/2000/svg" xmlns:xlink="http://www.w3.org/1999/xlink" version="1.1" id="Layer_1" x="0px" y="0px" width="584px" height="286px" viewBox="0 0 584 286" enable-background="new 0 0 584 286" xml:space="preserve">
<g>
	<path id="XMLID_50_" fill="#003A70" d="M285.62,53.516c0-8.114-5.509-12.655-13.502-12.655h-17.397v37.177h9.75V65.505h3.715   l7.903,12.533h10.864l-8.72-13.321C282.775,63.022,285.62,59.147,285.62,53.516 M271.1,57.867h-6.628v-8.65h6.628   c3.33,0,4.852,1.695,4.852,4.324C275.951,56.172,274.43,57.867,271.1,57.867 M216.313,40.861h31.686v8.356h-10.968v28.821h-9.749   V49.217h-10.969V40.861z M335.188,65.189h10.521c-1.479,7.798-6.387,13.456-16.866,13.456c-12.915,0-18.415-8.594-18.415-19.196   c0-10.601,5.545-19.195,18.415-19.195c10.273,0,15.311,5.659,16.845,13.456h-10.526c-1.033-2.973-3.138-4.95-6.537-4.95   c-5.324,0-7.918,4.785-7.918,10.689s2.518,10.69,7.918,10.69C332.057,70.139,334.178,68.163,335.188,65.189 M293.627,40.861h9.749   v37.177h-9.749V40.861z M200.028,40.861h9.563v37.177h-7.871l-15.3-21.487v21.487h-9.564V40.861h9.083l14.089,19.782V40.861z    M40.827,40.861h9.75v37.177h-9.75V40.861z M22.695,59.448c5.26,4.224,9.831,11.293,10.859,18.59H22.966   c-1.452-7.974-6.394-14.727-13.21-18.59c6.816-3.863,11.758-10.613,13.21-18.587h10.588C32.526,48.158,27.955,55.225,22.695,59.448    M83.053,40.861h9.563v37.177h-7.871l-15.3-21.487v21.487h-9.564V40.861h9.083l14.089,19.782V40.861z M141.51,40.861h27.591v8.356   h-18.024v6.115h14.425v8.174h-14.425v6.116h18.024v8.416H141.51V40.861z M373.256,59.448c-6.815,3.863-11.757,10.616-13.21,18.59   h-10.588c1.028-7.297,5.6-14.366,10.86-18.59c-5.261-4.223-9.832-11.29-10.86-18.587h10.588   C361.499,48.835,366.44,55.585,373.256,59.448 M124.198,65.189h10.522c-1.479,7.798-6.387,13.456-16.866,13.456   c-12.915,0-18.416-8.594-18.416-19.196c0-10.601,5.545-19.195,18.416-19.195c10.272,0,15.31,5.659,16.844,13.456h-10.527   c-1.032-2.973-3.137-4.95-6.535-4.95c-5.325,0-7.92,4.785-7.92,10.689s2.519,10.69,7.92,10.69   C121.068,70.139,123.188,68.163,124.198,65.189 M0.007,40.861h9.75v37.177h-9.75V40.861z"/>
    <g>
		<path fill="#648CF5" d="M0.012,177.406v-62.12h21.759c7.537,0,13.254,1.444,17.151,4.331c3.896,2.887,5.845,7.118,5.845,12.692    c0,3.044-0.783,5.725-2.347,8.042c-1.564,2.318-3.74,4.019-6.527,5.1c3.185,0.796,5.695,2.403,7.53,4.82    c1.834,2.418,2.751,5.376,2.751,8.874c0,5.974-1.906,10.496-5.717,13.567c-3.812,3.072-9.244,4.637-16.298,4.693H0.012z     M12.811,141.311h9.471c6.457-0.113,9.685-2.688,9.685-7.722c0-2.816-0.818-4.842-2.453-6.08    c-1.636-1.237-4.217-1.856-7.744-1.856h-8.959V141.311z M12.811,150.357v16.767h10.965c3.014,0,5.368-0.718,7.061-2.154    c1.692-1.437,2.539-3.42,2.539-5.952c0-5.688-2.944-8.575-8.832-8.66H12.811z"/>
        <path fill="#648CF5" d="M76.21,178.26c-6.77,0-12.28-2.076-16.532-6.229c-4.252-4.152-6.378-9.685-6.378-16.596v-1.195    c0-4.636,0.896-8.781,2.688-12.438c1.792-3.654,4.331-6.47,7.616-8.447c3.285-1.977,7.032-2.965,11.242-2.965    c6.314,0,11.285,1.991,14.911,5.973c3.626,3.982,5.44,9.629,5.44,16.938v5.034H65.8c0.398,3.016,1.6,5.434,3.605,7.253    c2.005,1.821,4.543,2.73,7.615,2.73c4.75,0,8.462-1.72,11.136-5.162l6.058,6.784c-1.849,2.617-4.352,4.657-7.509,6.122    S80.05,178.26,76.21,178.26z M74.802,140.33c-2.447,0-4.431,0.829-5.952,2.485c-1.522,1.658-2.496,4.03-2.922,7.115h17.151v-0.986    c-0.058-2.742-0.797-4.863-2.219-6.364C79.438,141.08,77.419,140.33,74.802,140.33z"/>
        <path fill="#648CF5" d="M125.708,164.649c0-1.507-0.747-2.694-2.24-3.563c-1.493-0.867-3.89-1.643-7.189-2.325    c-10.979-2.304-16.468-6.968-16.468-13.994c0-4.096,1.699-7.516,5.098-10.261c3.398-2.745,7.843-4.117,13.333-4.117    c5.859,0,10.544,1.38,14.058,4.139c3.513,2.759,5.269,6.343,5.269,10.752h-12.33c0-1.765-0.569-3.222-1.707-4.375    c-1.138-1.152-2.916-1.728-5.333-1.728c-2.077,0-3.684,0.469-4.821,1.408c-1.138,0.938-1.707,2.134-1.707,3.585    c0,1.365,0.646,2.468,1.941,3.307c1.294,0.839,3.477,1.564,6.549,2.176c3.072,0.611,5.66,1.301,7.765,2.069    c6.513,2.389,9.77,6.527,9.77,12.415c0,4.21-1.807,7.615-5.418,10.218c-3.612,2.603-8.277,3.904-13.994,3.904    c-3.869,0-7.303-0.69-10.304-2.069s-5.354-3.271-7.061-5.675c-1.707-2.403-2.56-4.998-2.56-7.786h11.69    c0.113,2.19,0.924,3.869,2.432,5.034c1.507,1.167,3.526,1.75,6.058,1.75c2.361,0,4.145-0.448,5.354-1.345    C125.104,167.273,125.708,166.101,125.708,164.649z"/>
        <path fill="#648CF5" d="M159.783,119.894v11.349h7.893v9.044h-7.893v23.04c0,1.706,0.327,2.93,0.981,3.669    c0.654,0.74,1.905,1.109,3.754,1.109c1.365,0,2.574-0.1,3.626-0.299v9.344c-2.418,0.739-4.906,1.109-7.466,1.109    c-8.647,0-13.055-4.366-13.226-13.099v-24.874h-6.741v-9.044h6.741v-11.349H159.783z"/>
	</g>
    <g id="XMLID_28_">
		<path id="XMLID_48_" fill="#003A70" d="M230.852,148.693h-26.921v22.015h31.273v6.698h-39.464v-62.12h39.038v6.698h-30.846v20.01    h26.921V148.693z"/>
        <path id="XMLID_46_" fill="#003A70" d="M249.926,131.243l0.213,5.12c3.385-3.982,7.95-5.973,13.695-5.973    c6.456,0,10.851,2.475,13.183,7.424c1.537-2.219,3.535-4.011,5.994-5.376c2.461-1.365,5.369-2.048,8.727-2.048    c10.125,0,15.273,5.362,15.443,16.085v30.932h-7.893v-30.462c0-3.301-0.754-5.768-2.262-7.404    c-1.508-1.635-4.039-2.453-7.594-2.453c-2.93,0-5.361,0.875-7.295,2.624c-1.936,1.749-3.059,4.103-3.371,7.062v30.633h-7.936    v-30.249c0-6.713-3.285-10.07-9.855-10.07c-5.177,0-8.718,2.205-10.624,6.613v33.706h-7.893v-46.164H249.926z"/>
        <path id="XMLID_43_" fill="#003A70" d="M358.08,154.837c0,7.025-1.606,12.686-4.82,16.98c-3.215,4.295-7.566,6.442-13.056,6.442    c-5.604,0-10.012-1.777-13.226-5.333v22.228h-7.894v-63.912h7.211l0.384,5.12c3.214-3.982,7.68-5.973,13.396-5.973    c5.546,0,9.934,2.091,13.162,6.271c3.228,4.181,4.842,10,4.842,17.451V154.837z M350.188,153.94c0-5.205-1.109-9.314-3.328-12.331    c-2.218-3.015-5.262-4.522-9.13-4.522c-4.778,0-8.362,2.119-10.751,6.357v22.059c2.36,4.21,5.973,6.314,10.836,6.314    c3.783,0,6.791-1.5,9.024-4.501C349.071,164.315,350.188,159.857,350.188,153.94z"/>
        <path id="XMLID_41_" fill="#003A70" d="M376.683,177.406h-7.894v-65.533h7.894V177.406z"/>
        <path id="XMLID_38_" fill="#003A70" d="M385.299,153.898c0-4.522,0.889-8.59,2.666-12.203c1.777-3.612,4.252-6.4,7.424-8.362    c3.171-1.962,6.79-2.944,10.858-2.944c6.285,0,11.369,2.176,15.252,6.528c3.883,4.352,5.824,10.141,5.824,17.365v0.555    c0,4.494-0.861,8.526-2.582,12.096s-4.181,6.35-7.381,8.341c-3.199,1.991-6.876,2.986-11.028,2.986    c-6.258,0-11.327-2.176-15.21-6.528c-3.883-4.352-5.823-10.111-5.823-17.278V153.898z M393.234,154.837    c0,5.12,1.187,9.23,3.563,12.33c2.374,3.101,5.553,4.65,9.535,4.65c4.011,0,7.195-1.571,9.557-4.715    c2.36-3.143,3.541-7.544,3.541-13.204c0-5.063-1.202-9.166-3.604-12.31c-2.404-3.142-5.597-4.714-9.578-4.714    c-3.897,0-7.04,1.551-9.43,4.65C394.429,144.626,393.234,149.063,393.234,154.837z"/>
        <path id="XMLID_36_" fill="#003A70" d="M449.179,165.844l10.751-34.601h8.448l-18.56,53.289c-2.873,7.68-7.438,11.52-13.695,11.52    l-1.493-0.128l-2.943-0.555v-6.399l2.133,0.17c2.674,0,4.757-0.54,6.251-1.621c1.493-1.081,2.723-3.058,3.69-5.931l1.749-4.692    l-16.469-45.652h8.618L449.179,165.844z"/>
        <path id="XMLID_33_" fill="#003A70" d="M491.428,178.26c-6.257,0-11.349-2.055-15.273-6.165s-5.888-9.606-5.888-16.49v-1.45    c0-4.579,0.875-8.668,2.624-12.267c1.749-3.598,4.195-6.414,7.338-8.447s6.549-3.051,10.219-3.051    c6.001,0,10.666,1.977,13.993,5.93c3.328,3.954,4.992,9.615,4.992,16.981v3.285h-31.273c0.113,4.551,1.443,8.228,3.989,11.029    c2.545,2.802,5.781,4.202,9.706,4.202c2.787,0,5.148-0.568,7.083-1.707c1.934-1.137,3.626-2.645,5.076-4.522l4.821,3.755    C504.967,175.288,499.164,178.26,491.428,178.26z M490.447,136.874c-3.187,0-5.86,1.16-8.021,3.478    c-2.162,2.318-3.498,5.568-4.011,9.75h23.124v-0.598c-0.228-4.011-1.309-7.119-3.242-9.323    C496.362,137.977,493.746,136.874,490.447,136.874z"/>
        <path id="XMLID_31_" fill="#003A70" d="M539.739,138.325c-1.194-0.199-2.489-0.299-3.882-0.299c-5.178,0-8.689,2.205-10.538,6.614    v32.767h-7.894v-46.164h7.68l0.128,5.333c2.588-4.124,6.257-6.187,11.008-6.187c1.536,0,2.702,0.199,3.498,0.597V138.325z"/>
        <path id="XMLID_29_" fill="#003A70" d="M573.871,165.161c0-2.133-0.804-3.789-2.41-4.97c-1.607-1.18-4.409-2.197-8.405-3.051    s-7.168-1.877-9.514-3.071c-2.347-1.195-4.082-2.617-5.205-4.267c-1.124-1.649-1.686-3.612-1.686-5.889c0-3.783,1.6-6.982,4.8-9.6    c3.199-2.617,7.288-3.925,12.266-3.925c5.233,0,9.479,1.351,12.735,4.053c3.257,2.703,4.885,6.158,4.885,10.368h-7.936    c0-2.162-0.917-4.025-2.752-5.59c-1.834-1.564-4.146-2.347-6.933-2.347c-2.873,0-5.119,0.626-6.741,1.877    c-1.621,1.252-2.432,2.887-2.432,4.907c0,1.906,0.754,3.343,2.262,4.31c1.507,0.968,4.23,1.892,8.17,2.773    s7.132,1.935,9.578,3.157s4.259,2.695,5.439,4.416c1.18,1.721,1.771,3.818,1.771,6.293c0,4.124-1.649,7.431-4.949,9.919    c-3.3,2.489-7.58,3.733-12.842,3.733c-3.697,0-6.969-0.655-9.813-1.963c-2.845-1.308-5.07-3.136-6.677-5.482    c-1.607-2.347-2.411-4.885-2.411-7.615h7.894c0.142,2.645,1.201,4.743,3.178,6.293c1.977,1.551,4.587,2.325,7.829,2.325    c2.986,0,5.383-0.604,7.189-1.813C572.968,168.795,573.871,167.182,573.871,165.161z"/>
	</g>
    <rect id="XMLID_65_" y="2.001" fill="#648CF5" width="581.764" height="1.638"/>
    <rect id="XMLID_64_" x="0.004" y="214.59" fill="#767676" width="134.79" height="1.638"/>
    <g id="XMLID_1_">
		<g>
			<path id="XMLID_272_" fill="#767676" d="M6.329,271.891v9.849H0.57v-27.954h10.905c2.099,0,3.945,0.385,5.539,1.152     c1.593,0.768,2.819,1.859,3.676,3.273s1.287,3.023,1.287,4.828c0,2.739-0.938,4.899-2.813,6.48     c-1.875,1.58-4.47,2.371-7.785,2.371H6.329z M6.329,267.225h5.146c1.523,0,2.685-0.358,3.484-1.075s1.2-1.74,1.2-3.071     c0-1.37-0.403-2.477-1.209-3.321c-0.807-0.845-1.92-1.28-3.341-1.306h-5.28V267.225z"/>
            <path id="XMLID_269_" fill="#767676" d="M51.803,268.396c0,2.752-0.487,5.164-1.459,7.237s-2.365,3.674-4.176,4.8     c-1.811,1.127-3.888,1.689-6.23,1.689c-2.317,0-4.384-0.557-6.201-1.67s-3.226-2.704-4.224-4.771     c-0.999-2.066-1.504-4.444-1.517-7.132v-1.383c0-2.752,0.496-5.174,1.488-7.267c0.992-2.093,2.393-3.698,4.205-4.818     c1.811-1.12,3.881-1.681,6.21-1.681s4.4,0.561,6.211,1.681s3.213,2.726,4.205,4.818s1.488,4.509,1.488,7.248V268.396z      M45.966,267.129c0-2.931-0.525-5.158-1.574-6.682c-1.049-1.522-2.547-2.284-4.493-2.284c-1.933,0-3.424,0.752-4.473,2.256     c-1.05,1.504-1.581,3.709-1.593,6.614v1.363c0,2.854,0.524,5.068,1.574,6.643c1.049,1.574,2.56,2.361,4.531,2.361     c1.933,0,3.417-0.759,4.454-2.275s1.562-3.728,1.574-6.633V267.129z"/>
            <path id="XMLID_267_" fill="#767676" d="M64.658,277.112h12.23v4.627H58.898v-27.954h5.759V277.112z"/>
            <path id="XMLID_264_" fill="#767676" d="M98.881,275.979H88.782l-1.92,5.76h-6.125l10.406-27.954h5.337l10.463,27.954h-6.125     L98.881,275.979z M90.337,271.314h6.988l-3.513-10.464L90.337,271.314z"/>
            <path id="XMLID_262_" fill="#767676" d="M135.197,281.739h-5.76l-11.212-18.393v18.393h-5.759v-27.954h5.759l11.231,18.432     v-18.432h5.741V281.739z"/>
            <path id="XMLID_259_" fill="#767676" d="M143.137,281.739v-27.954h8.601c2.457,0,4.656,0.555,6.595,1.661     c1.939,1.107,3.453,2.682,4.541,4.723c1.088,2.042,1.632,4.361,1.632,6.96v1.286c0,2.599-0.535,4.909-1.603,6.931     c-1.069,2.022-2.576,3.591-4.521,4.704c-1.946,1.113-4.141,1.677-6.585,1.689H143.137z M148.896,258.451v18.661h2.784     c2.252,0,3.974-0.736,5.165-2.208c1.19-1.472,1.798-3.577,1.824-6.316v-1.479c0-2.841-0.589-4.994-1.766-6.46     c-1.178-1.466-2.899-2.198-5.165-2.198H148.896z"/>
            <path id="XMLID_257_" fill="#767676" d="M202.866,281.739h-19.16v-3.802l9.042-9.638c1.241-1.356,2.16-2.54,2.755-3.552     c0.595-1.011,0.893-1.971,0.893-2.88c0-1.241-0.314-2.217-0.941-2.928c-0.627-0.71-1.523-1.065-2.688-1.065     c-1.254,0-2.243,0.432-2.966,1.296c-0.724,0.864-1.085,2-1.085,3.408h-5.568c0-1.702,0.406-3.258,1.219-4.666     c0.813-1.407,1.961-2.512,3.446-3.312c1.484-0.8,3.168-1.2,5.049-1.2c2.88,0,5.117,0.691,6.71,2.074     c1.594,1.382,2.39,3.334,2.39,5.855c0,1.382-0.358,2.79-1.075,4.224s-1.945,3.104-3.686,5.011l-6.355,6.7h12.019V281.739z"/>
            <path id="XMLID_254_" fill="#767676" d="M227.989,270.182c0,3.865-0.8,6.822-2.4,8.87c-1.6,2.048-3.942,3.071-7.027,3.071     c-3.046,0-5.376-1.005-6.988-3.014c-1.613-2.01-2.438-4.89-2.477-8.64v-5.146c0-3.903,0.81-6.866,2.429-8.889     s3.952-3.034,6.998-3.034c3.046,0,5.376,1.002,6.988,3.005c1.613,2.003,2.438,4.88,2.477,8.63V270.182z M222.44,264.524     c0-2.319-0.316-4.007-0.95-5.064c-0.634-1.057-1.622-1.585-2.966-1.585c-1.306,0-2.269,0.503-2.889,1.509     c-0.621,1.006-0.951,2.578-0.989,4.718v6.803c0,2.28,0.31,3.976,0.931,5.083c0.621,1.108,1.616,1.662,2.985,1.662     c1.356,0,2.335-0.531,2.938-1.595c0.601-1.063,0.915-2.69,0.94-4.881V264.524z"/>
            <path id="XMLID_252_" fill="#767676" d="M248.12,281.739h-5.548v-21.388l-6.624,2.055v-4.512l11.577-4.147h0.595V281.739z"/>
            <path id="XMLID_249_" fill="#767676" d="M273.089,270.565c-1.446,1.421-3.136,2.131-5.069,2.131c-2.47,0-4.448-0.848-5.932-2.544     c-1.485-1.695-2.228-3.983-2.228-6.863c0-1.83,0.4-3.51,1.2-5.04c0.8-1.529,1.917-2.72,3.35-3.57     c1.434-0.852,3.046-1.277,4.838-1.277c1.843,0,3.481,0.461,4.915,1.383c1.434,0.921,2.547,2.246,3.34,3.974     c0.793,1.729,1.197,3.706,1.211,5.933v2.055c0,4.659-1.16,8.319-3.477,10.981s-5.599,4.083-9.849,4.263l-1.363,0.019v-4.627     l1.229-0.019C270.081,277.145,272.691,274.879,273.089,270.565z M269.383,268.453c0.896,0,1.667-0.229,2.314-0.69     c0.646-0.461,1.135-1.018,1.469-1.671v-2.284c0-1.882-0.359-3.341-1.076-4.378c-0.717-1.036-1.676-1.555-2.879-1.555     c-1.114,0-2.029,0.509-2.746,1.526s-1.075,2.294-1.075,3.83c0,1.523,0.349,2.774,1.046,3.754     C267.134,267.964,268.116,268.453,269.383,268.453z"/>
		</g>
	</g>
</g>
</svg>